<svg xmlns="http://www.w3.org/2000/svg" width="541" height="606" data-name="Layer 1"><path fill="#f2f2f2" d="M518.014 606H22.986A23.012 23.012 0 0 1 0 583.014V22.986A23.012 23.012 0 0 1 22.986 0h495.028A23.012 23.012 0 0 1 541 22.986v560.028A23.012 23.012 0 0 1 518.014 606Z"/><path fill="#2e54ff" d="M493.12 39H47.88a15.641 15.641 0 0 0-15.62 15.62v410.42a15.641 15.641 0 0 0 15.62 15.62h445.24a15.641 15.641 0 0 0 15.62-15.62V54.62A15.641 15.641 0 0 0 493.12 39Z"/><path fill="#fff" d="M279.539 227.61c-4.326-7.154-9.45-14.792-17.477-17.128-9.295-2.705-18.843 2.669-26.943 7.971a785.107 785.107 0 0 0-69.87 51.48l.025.277 52.138-3.595c12.557-.866 25.544-1.852 36.64-7.792 4.212-2.254 8.316-5.264 13.088-5.474 5.928-.26 11.097 3.88 15.159 8.205 24.028 25.587 30.982 64.715 57.939 87.195a855.51 855.51 0 0 0-60.7-121.14Z"/><path fill="#e4e4e4" d="M427.238 444.633c-2.658-3.355-3.743-4.14-6.364-7.527q-32.013-41.403-60.178-85.604-19.131-30.019-36.365-61.19-8.205-14.82-15.96-29.872-6.017-11.671-11.766-23.482a474.817 474.817 0 0 1-3.221-6.773c-2.497-5.325-4.948-10.675-7.58-15.928-2.998-5.987-6.648-12.263-12.154-16.285a16.583 16.583 0 0 0-8.639-3.325c-4.482-.29-8.618 1.562-12.506 3.583a402.575 402.575 0 0 0-79.161 54.59 412.123 412.123 0 0 0-64.314 71.39c-.569.812-1.913.037-1.34-.78q3.39-4.793 6.913-9.482A414.4 414.4 0 0 1 220.4 215.265q10.291-6.67 20.97-12.713c3.587-2.032 7.19-4.037 10.856-5.92 3.593-1.845 7.408-3.505 11.513-3.567 13.97-.217 21.202 15.603 26.17 26.248q2.342 5.025 4.741 10.02 9.066 18.96 18.829 37.574 6.025 11.493 12.315 22.851 19.573 35.37 41.607 69.308c19.46 29.97 38.764 56.445 60.933 84.471.61.776-.48 1.882-1.096 1.096ZM171.963 245.008c-.811-.905-1.618-1.81-2.435-2.715-6.442-7.124-13.354-14.165-22.2-18.25a32.207 32.207 0 0 0-13.493-3.127 38.508 38.508 0 0 0-14.01 3.055c-2.11.843-4.172 1.8-6.204 2.818-2.322 1.168-4.602 2.414-6.87 3.67q-6.391 3.537-12.615 7.383-12.385 7.654-23.994 16.477-6.018 4.575-11.788 9.45-5.366 4.529-10.515 9.3c-.734.678-1.83-.418-1.096-1.095.905-.843 1.82-1.68 2.735-2.508q3.877-3.505 7.879-6.876 7.297-6.157 14.972-11.839 11.935-8.84 24.691-16.481 6.375-3.816 12.925-7.31c1.318-.704 2.652-1.391 4.002-2.043a63.792 63.792 0 0 1 9.512-3.872 33.84 33.84 0 0 1 14.367-1.411 37.405 37.405 0 0 1 13.256 4.585c8.685 4.855 15.422 12.362 21.977 19.687.662.745-.429 1.846-1.096 1.102Z"/><path fill="#e4e4e4" d="m349.923 318.833 20.813-7.613 10.333-3.78a105.676 105.676 0 0 1 10.202-3.513 16.094 16.094 0 0 1 9.234.118 21.282 21.282 0 0 1 7.202 4.464 58.449 58.449 0 0 1 5.907 6.309c2.25 2.704 4.467 5.436 6.693 8.159q13.784 16.857 27.387 33.86t27.025 34.15q13.454 17.19 26.723 34.523 1.625 2.124 3.248 4.25c.597.782 1.945.01 1.339-.784q-13.367-17.507-26.92-34.871-13.587-17.406-27.36-34.664-13.775-17.258-27.735-34.366-3.478-4.262-6.967-8.515c-1.963-2.391-3.903-4.808-6.055-7.034-3.95-4.086-8.887-7.697-14.795-7.795-3.474-.058-6.836 1.045-10.063 2.212-3.48 1.259-6.95 2.541-10.426 3.812l-20.957 7.666-5.24 1.916c-.93.34-.528 1.84.412 1.496Z"/><path fill="#fff" d="M144.59 233.008a33.6 33.6 0 0 0-33.84 2.42 482.654 482.654 0 0 1 54.912 12.816c-7.49-4.39-13.35-11.267-21.072-15.236Z"/><path fill="#f2f2f2" d="m110.646 235.41-2.036 1.654a30.142 30.142 0 0 1 2.14-1.636l-.104-.019Z"/><path fill="#fff" d="M406.923 318.909c-2.048-2.494-4.263-5.105-7.328-6.118l-2.86.112a324.517 324.517 0 0 0 86.434 98.816l-76.246-92.81Z"/><path fill="#fff" d="M462.757 176.65c5.77-2.516-5.93-3.98-19.205-4.461s-29.333-.455-37.816-1.825c-8.204-1.324-7.6-3.68-8.29-5.813s-3.844-4.321-16.646-4.796c-15.953-.59-42.26 1.684-54.304.319-11.238-1.275-4.558-5.273-20.945-5.426-9.357-.088-21.413 1.23-31.825 1.549a116.015 116.015 0 0 1-22.082-1.152c-5.075-.831-8.61-1.885-14.321-2.62-14.996-1.928-44.335-1.28-70.52 1.191s-48.633 6.522-61.292 10.533-16.156 7.96-13.207 11.31c1.883 2.138 6.701 4.138 18.39 4.997 21.861 1.608 60.785-1.16 83.375.303 12.59.815 18.177 2.836 29.224 3.942 11.868 1.188 29.242 1.25 46.312 1.223 35.542-.06 71.992-.424 109.161-1.094 15.525-.28 31.792-.643 48.311-1.976s33.37-3.905 36.855-6.316" opacity=".17"/><circle cx="217.015" cy="124.424" r="2.992" fill="#fff"/><circle cx="290.235" cy="91.998" r="1.795" fill="#fff"/><circle cx="191.235" cy="202.998" r="1.795" fill="#fff"/><circle cx="397.232" cy="119.408" r="1.795" fill="#fff"/><circle cx="278.232" cy="170.408" r="1.795" fill="#fff"/><circle cx="327.232" cy="138.408" r="1.795" fill="#fff"/><circle cx="417.932" cy="234.365" r="1.795" fill="#fff"/><circle cx="73.932" cy="219.365" r="1.795" fill="#fff"/><path fill="#3f3d56" d="M508.74 430.11v34.93a15.641 15.641 0 0 1-15.62 15.62H47.88a15.641 15.641 0 0 1-15.62-15.62V421.4a264.225 264.225 0 0 1 70.01-7.48c56.9 1.24 112.47 16.43 168.84 24.29a659.893 659.893 0 0 0 199.88-2.75c12.46-2.09 25.15-4.53 37.75-5.35ZM357.725 271.113c-2.274-4.21-2.591-9.727.2-13.612a22.043 22.043 0 0 0 8.782 12.326c1.658 1.13 3.62 2.213 4.188 4.137a4.928 4.928 0 0 1-.514 3.617 14.634 14.634 0 0 1-2.27 2.965l-.081.301c-4.116-2.439-8.032-5.524-10.305-9.734ZM211.725 383.113c-2.274-4.21-2.591-9.727.2-13.612a22.043 22.043 0 0 0 8.782 12.326c1.658 1.13 3.62 2.213 4.188 4.137a4.928 4.928 0 0 1-.514 3.617 14.634 14.634 0 0 1-2.27 2.965l-.081.301c-4.116-2.439-8.032-5.524-10.305-9.734ZM391.725 360.113c-2.274-4.21-2.591-9.727.2-13.612a22.043 22.043 0 0 0 8.782 12.326c1.658 1.13 3.62 2.213 4.188 4.137a4.928 4.928 0 0 1-.514 3.617 14.634 14.634 0 0 1-2.27 2.965l-.081.301c-4.116-2.439-8.032-5.524-10.305-9.734Z"/><path fill="#fff" d="M123.126 117.278a31.017 31.017 0 1 1 31.018-31.017 31.052 31.052 0 0 1-31.018 31.017Z"/><path fill="#f0f0f0" d="M216.562 84.67c-8.076-8.472-17.456-16.201-28.56-20.285a45.905 45.905 0 0 0-9.566-2.404c-.026-.004-.05.002-.077 0a1.408 1.408 0 0 0-.161-.032 36.823 36.823 0 0 0-13.668.825 37.762 37.762 0 0 0-6.364 2.217 55.65 55.65 0 0 0-5.971 3.384 38.84 38.84 0 0 1-13.196 4.923 44.393 44.393 0 0 1-7.087.695 17.119 17.119 0 0 0-5.962.859 14.31 14.31 0 0 0-8.715 9.436.928.928 0 0 0 .412 1.014c.529.378 1.044.808 1.6 1.145a4.99 4.99 0 0 0 1.562.426q1.325.28 2.653.543 4.892.97 9.825 1.716 9.981 1.511 20.07 2.129a223.483 223.483 0 0 0 40.397-1.214 224.255 224.255 0 0 0 22.412-3.877.906.906 0 0 0 .396-1.5ZM124.575 105.074a45.905 45.905 0 0 0-9.566-2.404c-.026-.003-.051.002-.077 0a1.408 1.408 0 0 0-.162-.032 36.823 36.823 0 0 0-13.667.825 37.761 37.761 0 0 0-6.364 2.217 55.653 55.653 0 0 0-5.972 3.384 38.84 38.84 0 0 1-13.195 4.923 44.392 44.392 0 0 1-7.087.696 17.119 17.119 0 0 0-5.963.858 14.31 14.31 0 0 0-8.715 9.437.928.928 0 0 0 .413 1.013c.528.379 1.044.809 1.599 1.146a4.99 4.99 0 0 0 1.562.426q1.325.28 2.653.543 4.892.969 9.825 1.716 9.981 1.51 20.07 2.128a223.482 223.482 0 0 0 40.397-1.214 224.252 224.252 0 0 0 22.413-3.876.906.906 0 0 0 .396-1.5c-8.077-8.473-17.456-16.202-28.56-20.286Z"/><path fill="#ccc" d="M263 535H38a6 6 0 0 1 0-12h225a6 6 0 1 1 0 12ZM150 568.5H38a6 6 0 0 1 0-12h112a6 6 0 1 1 0 12Z"/><path fill="#2f2e41" d="m107.375 384.038 17.203-13.061 8.385 8.385-28.025 19.179 2.437-14.503z"/><path fill="#2f2e41" d="M91.33 420.002H32.48l2.064-6.688c12.792-4.63 5.607-14.585 17.775-20.669 29.763-14.881 41.286-59.29 36.928-76.844l19.504-.825s26.936 76.493-17.422 105.026Z"/><path fill="#3f3d56" d="M141.57 388.565a9.891 9.891 0 0 1-12.782.24l-.038-.032-.002-.05a9.477 9.477 0 0 0-.38-2.418 6.77 6.77 0 0 1-.245 1.674l-.05.184-.132-.137a9.986 9.986 0 0 1-.328-.355 9.975 9.975 0 0 1-1.52-2.3 29.079 29.079 0 0 0-8.068-10.057 14.118 14.118 0 0 1-1.693-1.629 13.954 13.954 0 0 1 17.524-21.26l.087.052-.045.09a7.269 7.269 0 0 1-1.297 1.87 9.48 9.48 0 0 0 1.997-1.442l.063-.06.072.05a14.013 14.013 0 0 1 2.552 2.27l.081.094a6.23 6.23 0 0 0 4.613 2.129 9.888 9.888 0 0 1 9.575 11.585l-.01.065-.064.02a8.485 8.485 0 0 1-3.456.43 9.64 9.64 0 0 0 3.078.772l.137.01-.044.131a9.882 9.882 0 0 1-2.852 4.3l-.037.033-.04.035a9.71 9.71 0 0 0-3.355 6.74 9.964 9.964 0 0 1-3.341 6.966Z"/><path d="M143.37 385.386a9.863 9.863 0 0 1-.111 1.064 9.997 9.997 0 0 0 1.607-4.953c.013-.27.041-.54.08-.807a9.382 9.382 0 0 0-1.576 4.696ZM146.482 373.366a9.625 9.625 0 0 0 2.46.696 9.898 9.898 0 0 0 .901-1.1 8.387 8.387 0 0 1-3.361.404ZM150.107 370.118a9.949 9.949 0 0 1-.07 2.567 9.834 9.834 0 0 0 1.113-2.296l.043-.13-.137-.011a9.556 9.556 0 0 1-.949-.13ZM149.192 360.732a9.912 9.912 0 0 0-7.259-3.356 6.23 6.23 0 0 1-4.612-2.129l-.082-.093a14.013 14.013 0 0 0-2.552-2.271l-.071-.05-.064.06a9.479 9.479 0 0 1-1.997 1.443 7.269 7.269 0 0 0 1.297-1.87l.045-.091-.087-.051a13.944 13.944 0 0 0-20.66 9.027 13.946 13.946 0 0 1 19.164-5.138l.087.051-.045.09a7.27 7.27 0 0 1-1.297 1.871 9.479 9.479 0 0 0 1.997-1.443l.064-.06.071.05a14.013 14.013 0 0 1 2.552 2.271l.082.094a6.23 6.23 0 0 0 4.612 2.128 9.89 9.89 0 0 1 9.565 8.129 11.987 11.987 0 0 0 1.432-.349l.063-.019.011-.065a9.85 9.85 0 0 0-2.316-8.229Z" opacity=".15"/><path fill="#3f3d56" d="M170.013 320.012a31.85 31.85 0 0 1-26.603 31.411l-.158.026-.121-.102a30.517 30.517 0 0 0-6.656-4.225 21.8 21.8 0 0 1 3.525 4.155l.339.51-.611.029c-.528.026-1.052.038-1.558.038a32.118 32.118 0 0 1-8.793-1.219 93.63 93.63 0 0 0-41.472-1.879 45.458 45.458 0 0 1-7.537.629 44.931 44.931 0 0 1-14.135-87.576l.308-.102.122.301a23.405 23.405 0 0 1 1.765 7.114 30.523 30.523 0 0 0 .759-7.898l-.01-.28.273-.068a45.123 45.123 0 0 1 10.918-1.34l.399.002a20.058 20.058 0 0 0 14.956-6.626 31.84 31.84 0 0 1 48.371 1.486l.134.166-.088.194a27.322 27.322 0 0 1-6.307 9.273 31.04 31.04 0 0 0 8.41-5.803l.318-.308.223.383a31.818 31.818 0 0 1 4.332 16.04v.16l-.001.17a31.266 31.266 0 0 0 9.162 22.444 32.083 32.083 0 0 1 9.736 22.895Z"/><g opacity=".15"><path d="M131.084 244.76a22.494 22.494 0 0 1-4.012 4.922 30.962 30.962 0 0 0 6.268-3.918q-1.108-.545-2.256-1.003ZM149.515 282.769a31.97 31.97 0 0 1 4.579 5.578 32.547 32.547 0 0 1-2.98-13.673l.001-.17v-.162a31.819 31.819 0 0 0-4.33-16.04l-.224-.382-.318.308a31.112 31.112 0 0 1-5.808 4.422 31.014 31.014 0 0 0 9.08 20.119ZM140.354 259.994v.331c0 .313.005.624.014.936a33.163 33.163 0 0 0 3.772-6.502l.088-.195-.134-.166a32.1 32.1 0 0 0-5.76-5.571 31.89 31.89 0 0 1 2.02 11.167ZM160.277 297.117a28.79 28.79 0 0 1-4.059-4.937 31.81 31.81 0 0 1-23.57 44.894l-.157.026-.122-.101a30.517 30.517 0 0 0-6.656-4.225 21.8 21.8 0 0 1 3.525 4.154l.34.51-.612.03c-.527.025-1.051.038-1.557.038a32.118 32.118 0 0 1-8.793-1.22 93.631 93.631 0 0 0-41.472-1.878 45.458 45.458 0 0 1-7.537.628 44.726 44.726 0 0 1-29.842-11.38 44.971 44.971 0 0 0 40.603 25.729 45.458 45.458 0 0 0 7.537-.629 93.631 93.631 0 0 1 41.472 1.88 32.118 32.118 0 0 0 8.793 1.218c.506 0 1.03-.012 1.558-.038l.61-.03-.338-.51a21.8 21.8 0 0 0-3.525-4.154 30.517 30.517 0 0 1 6.656 4.225l.121.102.158-.026a31.826 31.826 0 0 0 16.867-54.306Z"/></g></svg>