<?xml version="1.0" encoding="UTF-8"?>
<svg version="1.1" xmlns="http://www.w3.org/2000/svg" width="500" height="500">
<path d="M0 0 C3.64751775 1.21583925 3.85255743 2.00287997 5.64453125 5.28515625 C6.14903809 6.19563721 6.65354492 7.10611816 7.17333984 8.04418945 C7.98472412 9.53825317 7.98472412 9.53825317 8.8125 11.0625 C9.98672576 13.1831537 11.16255703 15.30291907 12.33984375 17.421875 C12.94554199 18.51564453 13.55124023 19.60941406 14.17529297 20.73632812 C17.00730101 25.80165908 19.93767997 30.80772974 22.875 35.8125 C29.67010868 47.41868187 36.39590465 59.06393965 43.10888672 70.71777344 C46.23680148 76.14659942 49.36858448 81.57319281 52.5 87 C53.75001879 89.16665583 55.00001878 91.3333225 56.25 93.5 C57.178125 95.10875 57.178125 95.10875 58.125 96.75 C60 100 61.875 103.25 63.75 106.5 C64.36931396 107.5734668 64.98862793 108.64693359 65.62670898 109.75292969 C66.87104998 111.90980903 68.11535364 114.06670992 69.35961914 116.22363281 C73.23307681 122.93809986 77.10756696 129.65196878 80.984375 136.36450195 C82.26890055 138.59106643 83.55150838 140.81873855 84.83203125 143.04760742 C87.43545715 147.57741485 90.04348281 152.09962033 92.75390625 156.56640625 C93.14263916 157.21577148 93.53137207 157.86513672 93.93188477 158.53417969 C94.90250693 160.15018239 95.88794612 161.75726233 96.875 163.36328125 C98.25206092 166.59076777 97.95210647 167.66146438 97 171 C95.98699561 173.04094934 94.89566594 175.04381443 93.75390625 177.015625 C93.42693756 177.58482666 93.09996887 178.15402832 92.76309204 178.74047852 C91.70330957 180.58118461 90.63345901 182.41577764 89.5625 184.25 C88.83136794 185.51115031 88.10065659 186.77254462 87.37036133 188.03417969 C85.92204125 190.53400492 84.46952427 193.03132933 83.01464844 195.52734375 C81.25828242 198.54605263 79.53362222 201.58160615 77.8203125 204.625 C76.94288903 206.16676952 76.06530126 207.70844555 75.1875 209.25 C74.79828369 209.95157227 74.40906738 210.65314453 74.00805664 211.37597656 C72.91796875 213.265625 72.91796875 213.265625 71 216 C70.01 216 69.02 216 68 216 C66.42361577 213.73631224 65.08332873 211.52978766 63.75 209.125 C63.32162842 208.37468506 62.89325684 207.62437012 62.4519043 206.85131836 C61.48953734 205.1651948 60.53173037 203.47646331 59.57763672 201.78564453 C57.31124171 197.78385453 55.00394186 193.80605249 52.70019531 189.82568359 C50.77143981 186.49152089 48.84788042 183.15441022 46.92578125 179.81640625 C42.49953821 172.12999114 38.06711999 164.44714601 33.6328125 156.76538086 C30.46477396 151.27629112 27.30084958 145.7849011 24.14453125 140.2890625 C16.56802393 127.10726544 8.8863723 113.99902474 1 101 C0.67950684 101.57105469 0.35901367 102.14210938 0.02880859 102.73046875 C-6.2977404 113.99159169 -12.67511554 125.22015033 -19.1875 136.375 C-19.76717529 137.37047852 -20.34685059 138.36595703 -20.9440918 139.39160156 C-23.63582632 144.00296081 -26.35108193 148.59549204 -29.140625 153.1484375 C-29.61604736 153.9317041 -30.09146973 154.7149707 -30.58129883 155.52197266 C-31.45850287 156.9630823 -32.34574022 158.39815282 -33.24487305 159.82568359 C-35.4313987 163.16287843 -35.4313987 163.16287843 -35.71191406 166.98632812 C-34.48930192 170.44452599 -32.61370708 173.56798407 -30.8125 176.75 C-30.37180176 177.53584473 -29.93110352 178.32168945 -29.47705078 179.13134766 C-25.26553792 186.60478958 -20.9340331 194.00816444 -16.59692383 201.40917969 C-12.01042138 209.24227987 -7.49266028 217.11290931 -3 225 C1.95348205 233.69418741 6.94369473 242.36503119 12 251 C17.4035646 260.22800529 22.72652361 269.4999467 28.02050781 278.79101562 C32.63502852 286.88744218 37.29103794 294.95801457 42 303 C47.0318979 311.5951729 52.00389124 320.22312222 56.9375 328.875 C62.12442537 337.97080181 67.32718516 347.05690746 72.5625 356.125 C73.47056396 357.69906616 73.47056396 357.69906616 74.39697266 359.30493164 C77.30449961 364.34230129 80.21714454 369.37660723 83.14137268 374.40429688 C84.53217277 376.79641787 85.9204926 379.1899736 87.30856323 381.5836792 C88.28797416 383.27026548 89.27101647 384.95474134 90.25415039 386.63916016 C91.14348267 388.1732251 91.14348267 388.1732251 92.05078125 389.73828125 C92.57325439 390.63587158 93.09572754 391.53346191 93.6340332 392.45825195 C94.9591405 394.92396993 95.98255665 397.39568383 97 400 C72.99182344 400.56163664 48.98463604 400.98432868 24.97120476 401.24349213 C13.81987306 401.36705157 2.67263103 401.5353416 -8.47607422 401.81054688 C-18.19828799 402.05042403 -27.91754073 402.20473996 -37.64263141 402.25812387 C-42.78993166 402.28932172 -47.92876556 402.36208284 -53.07333755 402.53752136 C-84.34732913 403.56366109 -84.34732913 403.56366109 -92.06676865 397.65104294 C-96.91571298 392.01323153 -99.67951165 385.82875712 -102.00654602 378.82126999 C-103.35422525 374.99404995 -105.24661379 371.88750062 -107.4296875 368.4765625 C-108.01621094 367.48011719 -108.60273438 366.48367188 -109.20703125 365.45703125 C-110.37067505 363.48128943 -111.53760113 361.50747869 -112.70703125 359.53515625 C-113.55974609 358.08302734 -113.55974609 358.08302734 -114.4296875 356.6015625 C-114.92710449 355.75932129 -115.42452148 354.91708008 -115.93701172 354.04931641 C-117 352 -117 352 -117 350 C-75.09 350 -33.18 350 10 350 C5.05 341.42 0.1 332.84 -5 324 C-26.25 287.16666667 -47.5 250.33333333 -68.75 213.5 C-69.68005859 211.88871216 -69.68005859 211.88871216 -70.62890625 210.24487305 C-71.86778687 208.09639154 -73.10479334 205.94682816 -74.33984375 203.79614258 C-77.26644065 198.70514784 -80.21126278 193.62752266 -83.2232666 188.5866394 C-84.64765487 186.20019442 -86.06140853 183.80753319 -87.47436523 181.41430664 C-88.47843869 179.72380162 -89.49785518 178.04243962 -90.51757812 176.36132812 C-91.12021484 175.33845703 -91.72285156 174.31558594 -92.34375 173.26171875 C-92.88193359 172.36412842 -93.42011719 171.46653809 -93.97460938 170.54174805 C-95.22732752 167.43649838 -95.06298835 166.14777348 -94 163 C-92.74755859 160.45825195 -92.74755859 160.45825195 -91.1484375 157.73828125 C-90.55224609 156.71541016 -89.95605469 155.69253906 -89.34179688 154.63867188 C-88.69275391 153.54103516 -88.04371094 152.44339844 -87.375 151.3125 C-86.69521082 150.15083078 -86.01618752 148.98871307 -85.33789062 147.82617188 C-83.92841697 145.41182554 -82.51567013 142.99944078 -81.10058594 140.58837891 C-77.86944479 135.07681417 -74.68727005 129.5370062 -71.5 124 C-70.25023053 121.83320035 -69.00022976 119.6665341 -67.75 117.5 C-67.13125 116.4275 -66.5125 115.355 -65.875 114.25 C-30.25 52.5 -30.25 52.5 -28.37231445 49.24536133 C-27.13124746 47.09416776 -25.89019907 44.94296345 -24.64916992 42.79174805 C-21.73501656 37.74037001 -18.82068182 32.6890969 -15.90567017 27.63821411 C-14.87326522 25.84933082 -13.84092044 24.06041283 -12.80859375 22.27148438 C-11.51314052 20.02662364 -10.2175743 17.7818281 -8.921875 15.53710938 C-5.93692086 10.36428226 -2.95754683 5.18854991 0 0 Z " fill="#23AEFF" transform="translate(249,36)"/>
<path d="M0 0 C0.66 0 1.32 0 2 0 C8.02896052 10.41205882 8.02896052 10.41205882 10.71655273 15.09667969 C11.40731002 16.30017573 12.0981474 17.5036258 12.7890625 18.70703125 C13.13741653 19.31384735 13.48577057 19.92066345 13.84468079 20.54586792 C16.17795164 24.59992561 18.55828005 28.62322987 20.9609375 32.63671875 C22.16153287 34.67443525 23.36205711 36.71219367 24.5625 38.75 C25.1402417 39.69431885 25.7179834 40.6386377 26.31323242 41.61157227 C26.82990479 42.49772217 27.34657715 43.38387207 27.87890625 44.296875 C28.3385376 45.06354492 28.79816895 45.83021484 29.27172852 46.62011719 C30.55557047 50.8155216 28.53771941 53.95439226 26.61816406 57.68701172 C26.08932617 58.59209473 25.56048828 59.49717773 25.015625 60.4296875 C24.4175 61.45964844 23.819375 62.48960937 23.203125 63.55078125 C22.55859375 64.64777344 21.9140625 65.74476563 21.25 66.875 C20.57241378 68.03746744 19.89533873 69.20023297 19.21875 70.36328125 C17.48455261 73.3414967 15.74407437 76.31598625 14.00170898 79.28942871 C12.4718065 81.90197118 10.94688494 84.51741191 9.421875 87.1328125 C7.70641347 90.0746486 5.99052056 93.01622329 4.27246094 95.95654297 C-0.01084478 103.28957196 -4.2612325 110.64115003 -8.5 118 C-13.86997664 127.32272233 -19.27100701 136.62652058 -24.70410156 145.91259766 C-27.87205683 151.33270077 -31.01868013 156.76425158 -34.140625 162.2109375 C-34.83333235 163.41796932 -35.52604067 164.62500057 -36.21875 165.83203125 C-37.55043968 168.15295797 -38.87781516 170.4761878 -40.203125 172.80078125 C-40.80125 173.84363281 -41.399375 174.88648438 -42.015625 175.9609375 C-42.54446289 176.88696777 -43.07330078 177.81299805 -43.61816406 178.76708984 C-45 181 -45 181 -47 183 C-49.40444946 183.24050903 -49.40444946 183.24050903 -52.45947266 183.22705078 C-53.60050446 183.22689972 -54.74153625 183.22674866 -55.91714478 183.22659302 C-57.77186905 183.21110916 -57.77186905 183.21110916 -59.6640625 183.1953125 C-60.92640717 183.1924826 -62.18875183 183.18965271 -63.48934937 183.18673706 C-66.84646944 183.17742131 -70.20331912 183.15944835 -73.56036377 183.1373291 C-76.98553122 183.1168755 -80.41072659 183.1077364 -83.8359375 183.09765625 C-90.55736671 183.07556458 -97.27866773 183.04206377 -104 183 C-103.28147073 179.00515653 -102.17547258 176.18293327 -100.11328125 172.66796875 C-99.51193359 171.63478516 -98.91058594 170.60160156 -98.29101562 169.53710938 C-97.31165039 167.87905273 -97.31165039 167.87905273 -96.3125 166.1875 C-95.63019245 165.02057199 -94.94856206 163.8532478 -94.26757812 162.68554688 C-92.86665869 160.28595951 -91.46177647 157.88876622 -90.05322266 155.49365234 C-87.59212146 151.3085865 -85.14711739 147.11418408 -82.70214844 142.91967773 C-81.55912192 140.95905609 -80.41522925 138.99893918 -79.27050781 137.03930664 C-73.10207498 126.47780925 -66.99606142 115.88050466 -60.89111328 105.28222656 C-57.76319852 99.85340058 -54.63141552 94.42680719 -51.5 89 C-50.24998121 86.83334417 -48.99998122 84.6666775 -47.75 82.5 C-44 76 -44 76 -40.25 69.5 C-39.63116943 68.42733887 -39.01233887 67.35467773 -38.37475586 66.24951172 C-37.12564482 64.08442929 -35.87645871 61.91939018 -34.62719727 59.75439453 C-31.48797691 54.31384294 -28.35009437 48.87252784 -25.21484375 43.4296875 C-22.7249529 39.10728577 -20.23119005 34.78715533 -17.734375 30.46875 C-15.48380905 26.57600762 -13.24224687 22.67840293 -11.01219177 18.77389526 C-9.40938436 15.97114805 -7.7974454 13.17365136 -6.1875 10.375 C-5.29792603 8.80854736 -5.29792603 8.80854736 -4.39038086 7.21044922 C-3.84260986 6.26186035 -3.29483887 5.31327148 -2.73046875 4.3359375 C-2.00960083 3.07595947 -2.00960083 3.07595947 -1.27416992 1.79052734 C-0.85369385 1.19965332 -0.43321777 0.6087793 0 0 Z " fill="#000000" transform="translate(124,253)"/>
<path d="M0 0 C3.17440814 2.92629249 5.2534503 5.84345489 7.36328125 9.6015625 C7.99500244 10.71805176 8.62672363 11.83454102 9.27758789 12.98486328 C9.95590002 14.19823766 10.63420384 15.41161669 11.3125 16.625 C12.02454459 17.88698773 12.73736621 19.14853733 13.45092773 20.40966797 C14.55093263 22.35403665 15.65044428 24.29866659 16.74757385 26.24465942 C20.30991389 32.56279056 23.93064676 38.84659427 27.5625 45.125 C28.80344225 47.27340467 30.04432762 49.4218422 31.28515625 51.5703125 C31.89762207 52.63024414 32.51008789 53.69017578 33.14111328 54.78222656 C36.26324605 60.18670645 39.38141204 65.59347412 42.5 71 C43.74998122 73.1666775 44.99998121 75.33334417 46.25 77.5 C68.75 116.5 68.75 116.5 70.62597656 119.75170898 C71.87270256 121.91268988 73.11944727 124.07365998 74.36621094 126.23461914 C77.54145883 131.73818851 80.71635495 137.24196032 83.890625 142.74609375 C84.5312085 143.85662109 85.17179199 144.96714844 85.83178711 146.11132812 C87.09615201 148.30373074 88.35999897 150.49643214 89.62329102 152.68945312 C92.52879483 157.73066279 95.44357174 162.76581566 98.38671875 167.78515625 C98.90459961 168.67082275 99.42248047 169.55648926 99.95605469 170.46899414 C100.91788708 172.11225658 101.88318523 173.75349716 102.85253906 175.39233398 C106 180.77681826 106 180.77681826 106 183 C98.66575333 183.51350471 91.33544898 183.90230984 83.9867754 184.13986778 C80.57166292 184.25403268 77.16894572 184.40798996 73.76098633 184.65966797 C51.90210432 186.23139666 51.90210432 186.23139666 45.55480957 180.97509766 C41.29447539 175.75856805 38.61751122 169.89493416 36.11129761 163.68267822 C34.68725836 160.24504006 32.92488544 157.24574358 30.9765625 154.078125 C29.85816133 152.13611511 28.74095612 150.19341594 27.625 148.25 C26.35680371 146.04685608 25.08857355 143.84373165 23.8203125 141.640625 C23.18899414 140.54298828 22.55767578 139.44535156 21.90722656 138.31445312 C18.77635076 132.87349435 15.63783458 127.43694752 12.5 122 C11.24996242 119.83335502 9.99996244 117.66668834 8.75 115.5 C8.13125 114.4275 7.5125 113.355 6.875 112.25 C1.25 102.5 1.25 102.5 -0.62792969 99.24487305 C-1.86810761 97.09526366 -3.10834127 94.94568642 -4.34863281 92.79614258 C-7.2735023 87.72690788 -10.19780833 82.65735064 -13.12011719 77.5866394 C-14.49806938 75.19573403 -15.87634172 72.80501328 -17.25463867 70.41430664 C-18.22540982 68.73016037 -19.19571874 67.04574769 -20.16601562 65.36132812 C-21.05063477 63.82702148 -21.05063477 63.82702148 -21.953125 62.26171875 C-22.47036133 61.36412842 -22.98759766 60.46653809 -23.52050781 59.54174805 C-24.96792215 56.96446862 -24.96792215 56.96446862 -26.75292969 54.54614258 C-28.3936905 51.19620238 -28.01389523 49.5496423 -27 46 C-25.79174805 43.44897461 -25.79174805 43.44897461 -24.26171875 40.90234375 C-23.69412842 39.94529541 -23.12653809 38.98824707 -22.54174805 38.00219727 C-21.62389526 36.48517212 -21.62389526 36.48517212 -20.6875 34.9375 C-19.41569447 32.80005734 -18.14488131 30.66202392 -16.875 28.5234375 C-16.23046875 27.44288086 -15.5859375 26.36232422 -14.921875 25.24902344 C-11.4170568 19.32395731 -8.03600081 13.32846763 -4.64526367 7.33764648 C-4.17838135 6.51594971 -3.71149902 5.69425293 -3.23046875 4.84765625 C-2.82207764 4.12586182 -2.41368652 3.40406738 -1.99291992 2.66040039 C-1 1 -1 1 0 0 Z " fill="#000000" transform="translate(375,253)"/>
</svg>
